<svg xmlns="http://www.w3.org/2000/svg" width="418.984" height="53.645" viewBox="0 0 418.984 53.645">
    <defs>
        <style>
            .cls-2{fill:#060001}
        </style>
    </defs>
    <g id="color_ci" transform="translate(-317.269 -182.677)">
        <g id="그룹_131">
            <path id="패스_100" fill="#c31a1f" fill-rule="evenodd" d="M325.146 190.556a26.822 26.822 0 0 0 18.945 45.766H360.6a18.89 18.89 0 0 0 18.282-18.822q0-.45-.022-.9l-.007-.127-.02-.323-.01-.137-.025-.28-.019-.2-.03-.259-.033-.262-.027-.2-.04-.256-.021-.127c-.047-.287-.1-.57-.161-.852a18.626 18.626 0 0 0-.92-3.016l-.026-.066-.134-.322-.067-.156-.094-.211-.09-.2-.1-.2-.137-.279-.025-.049-.092-.181a19.06 19.06 0 0 0-6.17-6.961 10.844 10.844 0 0 0-6.821-19.264H346.2a2.834 2.834 0 1 0 0 5.668h17.589a5.18 5.18 0 0 1 4.242 2.232 5.186 5.186 0 0 1 0 5.9 5.183 5.183 0 0 1-4.242 2.232h-2.7c-.166-.009-.333-.017-.5-.022h-8.962v-.005q-2.715-.006-5.429-.006a2.833 2.833 0 1 0 0 5.667h3.435l1.932.006a2.756 2.756 0 0 0 .342.021h9.011a13.211 13.211 0 0 1 12.221 11.818v.027l.027.307.019.3v.039c.01.211.015.425.015.639a13.2 13.2 0 0 1-12.605 13.15c-5.509 0-11.011.015-16.52.015a21.136 21.136 0 0 1-17.387-33.2l1.541-2.215-.518 2.648a18.818 18.818 0 0 0 18.489 22.442h13.848a2.833 2.833 0 1 0 0-5.667H346.2a13.2 13.2 0 0 1-13.162-13.161 14.264 14.264 0 0 1 2.761-8.45q.361-.485.763-.926a36.344 36.344 0 0 0 2.991-3.112 3.769 3.769 0 0 0 .8-3.115 2.175 2.175 0 0 0-.459-.882 3.648 3.648 0 0 0-2.908-.97c-2.182.088-4.613 1.319-6.309 2.274a25.488 25.488 0 0 0-5.533 4.23"/>
        </g>
        <g id="그룹_132">
            <path id="패스_101" d="M451.152 231.728a28.6 28.6 0 0 1-9.7-1.7 25.64 25.64 0 0 1-8.644-5.217l5.618-6.73a28.288 28.288 0 0 0 6.082 3.829 16.286 16.286 0 0 0 6.824 1.42 8.308 8.308 0 0 0 4.6-1.081 3.4 3.4 0 0 0 1.636-2.994v-.124a3.769 3.769 0 0 0-.338-1.636 3.431 3.431 0 0 0-1.3-1.327 14.066 14.066 0 0 0-2.664-1.236 46.09 46.09 0 0 0-4.426-1.3 54.3 54.3 0 0 1-5.947-1.79 16.758 16.758 0 0 1-4.519-2.44 9.9 9.9 0 0 1-2.874-3.602 12.576 12.576 0 0 1-1.019-5.372v-.128a12.6 12.6 0 0 1 1.1-5.341 12.225 12.225 0 0 1 3.1-4.106 13.957 13.957 0 0 1 4.765-2.656 19.125 19.125 0 0 1 6.1-.926 25.864 25.864 0 0 1 8.737 1.421 25.313 25.313 0 0 1 7.317 4.075l-4.94 7.162a31.34 31.34 0 0 0-5.68-3.118 14.531 14.531 0 0 0-5.558-1.142 6.721 6.721 0 0 0-4.168 1.081 3.282 3.282 0 0 0-1.388 2.685v.124a3.91 3.91 0 0 0 .4 1.822 3.65 3.65 0 0 0 1.45 1.389 14.113 14.113 0 0 0 2.882 1.173c1.225.371 2.758.8 4.611 1.3a43.808 43.808 0 0 1 5.855 1.945 16.351 16.351 0 0 1 4.333 2.593 9.908 9.908 0 0 1 2.665 3.55 12.088 12.088 0 0 1 .9 4.878v.124a13.447 13.447 0 0 1-1.164 5.711 11.78 11.78 0 0 1-3.251 4.2 14.7 14.7 0 0 1-4.981 2.594 21.591 21.591 0 0 1-6.411.9" class="cls-2"/>
            <path id="패스_102" d="M473.023 187.889h32.541v8.458h-23.156v8.768h20.376v8.46h-20.376v9.077h23.464v8.458h-32.849z" class="cls-2"/>
            <path id="패스_103" d="M534.1 231.852a22.375 22.375 0 0 1-8.831-1.729 21.719 21.719 0 0 1-7.038-4.724 21.5 21.5 0 0 1-4.631-7.069 22.761 22.761 0 0 1-1.668-8.707v-.123a22.457 22.457 0 0 1 6.3-15.778 21.476 21.476 0 0 1 7.1-4.816 23.115 23.115 0 0 1 9.138-1.759 28.625 28.625 0 0 1 5.527.494A22.98 22.98 0 0 1 544.54 189a19.609 19.609 0 0 1 3.766 2.1 25.4 25.4 0 0 1 3.211 2.716l-6.051 6.978a22.86 22.86 0 0 0-5.156-3.582 13.121 13.121 0 0 0-5.9-1.3 12.039 12.039 0 0 0-5.033 1.05 11.908 11.908 0 0 0-3.983 2.9 13.528 13.528 0 0 0-2.593 4.291 14.583 14.583 0 0 0-.926 5.218v.124a14.825 14.825 0 0 0 .926 5.247 13.734 13.734 0 0 0 2.563 4.322 11.887 11.887 0 0 0 9.046 4.014 13.252 13.252 0 0 0 6.267-1.358 24.434 24.434 0 0 0 5.094-3.705l6.05 6.113a31.272 31.272 0 0 1-3.457 3.21 20.133 20.133 0 0 1-8.583 3.983 28.077 28.077 0 0 1-5.68.525" class="cls-2"/>
            <path id="패스_104" d="M580.8 231.852a23.577 23.577 0 0 1-9.2-1.76 22.927 22.927 0 0 1-7.255-4.754 21.27 21.27 0 0 1-4.754-7.04 22.175 22.175 0 0 1-1.7-8.675v-.123a21.835 21.835 0 0 1 1.729-8.676 22.111 22.111 0 0 1 12.071-11.918 25.022 25.022 0 0 1 18.432 0 22.89 22.89 0 0 1 7.255 4.755 21.255 21.255 0 0 1 4.754 7.04 22.175 22.175 0 0 1 1.7 8.675v.124a21.861 21.861 0 0 1-1.728 8.674 22.12 22.12 0 0 1-12.072 11.917 23.8 23.8 0 0 1-9.231 1.76m.124-8.768a12.99 12.99 0 0 0 5.248-1.05 12 12 0 0 0 4.106-2.9 13.709 13.709 0 0 0 2.656-4.291 14.18 14.18 0 0 0 .956-5.218v-.124a14.427 14.427 0 0 0-.956-5.25 12.953 12.953 0 0 0-6.888-7.25 12.684 12.684 0 0 0-5.249-1.08 12.928 12.928 0 0 0-5.279 1.05 12.049 12.049 0 0 0-4.076 2.9 13.684 13.684 0 0 0-2.655 4.291 14.155 14.155 0 0 0-.956 5.218v.124a14.389 14.389 0 0 0 .956 5.247 13.035 13.035 0 0 0 6.854 7.25 12.62 12.62 0 0 0 5.28 1.084z" class="cls-2"/>
            <path id="패스_105" d="M609.894 187.889h8.768l20.252 26.611v-26.611h9.386v43.222h-8.089l-20.932-27.477v27.477h-9.385z" class="cls-2"/>
            <path id="패스_106" d="M656.1 187.889h16.856a25.558 25.558 0 0 1 9.295 1.636 21.97 21.97 0 0 1 7.285 4.539 20.2 20.2 0 0 1 4.723 6.823 21.471 21.471 0 0 1 1.667 8.49v.124a21.7 21.7 0 0 1-1.667 8.52 20.141 20.141 0 0 1-4.723 6.854 22.349 22.349 0 0 1-7.285 4.568 25.107 25.107 0 0 1-9.295 1.668H656.1zm16.856 34.639a14.651 14.651 0 0 0 5.311-.927 11.379 11.379 0 0 0 4.106-2.654 12.456 12.456 0 0 0 2.655-4.075 13.79 13.79 0 0 0 .958-5.249v-.123a14.087 14.087 0 0 0-.958-5.25 12.311 12.311 0 0 0-2.655-4.137 11.762 11.762 0 0 0-4.106-2.686 14.283 14.283 0 0 0-5.311-.956h-7.346v26.056z" class="cls-2"/>
            <path id="패스_107" d="M700.255 223.887l23.773-27.662H701v-8.336h35.257v7.225l-23.772 27.661h23.772v8.336h-36z" class="cls-2"/>
            <path id="패스_108" fill="#060001" fill-rule="evenodd" d="M389.922 200.639h9.623c.064-1.483.454-3.107 1.82-3.911a9.944 9.944 0 0 1 4.869-1h3.3a30.442 30.442 0 0 1 3.094.13 5.909 5.909 0 0 1 2.187.608 2.985 2.985 0 0 1 1.329 1.4 5.784 5.784 0 0 1 .408 2.359 3.717 3.717 0 0 1-1.46 3.295c-1.233.822-3.282.945-4.718.945H404.4v8.518h6.36a7.556 7.556 0 0 1 4.168 1.04c1.346.889 1.622 2.68 1.622 4.169a6.7 6.7 0 0 1-.44 2.648 3.36 3.36 0 0 1-1.284 1.523 5.115 5.115 0 0 1-2 .68 18.192 18.192 0 0 1-2.586.164h-4.266a10.513 10.513 0 0 1-4.537-.77 3.358 3.358 0 0 1-1.566-2.978h-9.95c.034 3.44.857 6.926 3.569 9.253 2.968 2.548 7.565 3.052 11.318 3.014l6.527-.064c3.818-.039 8.582-.572 11.687-3.02 2.991-2.358 3.725-6.328 3.725-9.933a11.564 11.564 0 0 0-2.237-7.486c-1.385-1.654-2.954-2.207-5-2.737a9.641 9.641 0 0 0 4.441-1.95c1.994-1.751 2.8-4.456 2.8-7.474a12.34 12.34 0 0 0-1.295-5.994c-2.821-5.021-8.909-5.8-14.114-5.8h-7.69c-5.987 0-11.556 2.041-13.121 8.388a21.646 21.646 0 0 0-.606 4.98"/>
        </g>
    </g>
</svg>
